<?xml version="1.0" encoding="UTF-8"?>
<svg id="Capa_2" data-name="Capa 2" xmlns="http://www.w3.org/2000/svg" viewBox="0 0 538.44 394.82">
  <defs>
    <style>
      .cls-1 {
        fill: #fff;
      }

      .cls-2 {
        fill: #d3d3d3;
      }

      .cls-3 {
        fill: #47caff;
      }

      .cls-4 {
        fill: #e7e7e7;
      }
    </style>
  </defs>
  <g id="Capa_1-2" data-name="Capa 1">
    <g>
      <path class="cls-2" d="M406.96,187.6c-9.45,0-18.3,2.53-25.92,6.95.24-2.35.37-4.73.37-7.14,0-37.84-30.68-68.52-68.52-68.52s-68.52,30.68-68.52,68.52c0,4.38.42,8.67,1.2,12.82-4.35-1.35-8.97-2.07-13.76-2.07-25.66,0-46.46,20.8-46.46,46.46s20.8,46.46,46.46,46.46h175.14c28.58,0,51.74-23.17,51.74-51.74s-23.17-51.74-51.74-51.74Z"/>
      <path class="cls-4" d="M221.61,159.96c-9.45,0-18.3,2.53-25.92,6.95.24-2.35.37-4.73.37-7.14,0-37.84-30.68-68.52-68.52-68.52s-68.52,30.68-68.52,68.52c0,4.38.42,8.67,1.2,12.82-4.35-1.35-8.97-2.07-13.76-2.07-25.66,0-46.46,20.8-46.46,46.46s20.8,46.46,46.46,46.46h175.14c28.58,0,51.74-23.17,51.74-51.74s-23.17-51.74-51.74-51.74Z"/>
      <path class="cls-1" d="M476.85,81.79c-11.24,0-21.78,3.01-30.86,8.28.29-2.8.44-5.63.44-8.5,0-45.05-36.52-81.57-81.57-81.57s-81.57,36.52-81.57,81.57c0,5.22.5,10.32,1.43,15.26-5.18-1.6-10.68-2.47-16.38-2.47-30.55,0-55.31,24.76-55.31,55.31s24.76,55.31,55.31,55.31h208.5c34.02,0,61.59-27.58,61.59-61.59s-27.58-61.59-61.59-61.59Z"/>
      <path class="cls-3" d="M346.43,234.35s-29.41,40.97,0,45.8c29.41-4.82,0-45.8,0-45.8Z"/>
      <path class="cls-3" d="M457.14,307.82s-34.91,48.65,0,54.38c34.92-5.72,0-54.38,0-54.38Z"/>
      <path class="cls-3" d="M57,283.4s-22.53,31.39,0,35.09c22.53-3.69,0-35.09,0-35.09Z"/>
      <path class="cls-3" d="M428.94,224.22s-21.21,29.55,0,33.03c21.21-3.48,0-33.03,0-33.03Z"/>
      <path class="cls-3" d="M114.47,361.79s-21.21,29.55,0,33.03c21.21-3.48,0-33.03,0-33.03Z"/>
      <path class="cls-3" d="M269.22,330.32s-40.94,57.04,0,63.75c40.94-6.71,0-63.75,0-63.75Z"/>
    </g>
  </g>
</svg>