<?xml version="1.0" encoding="UTF-8"?>
<svg id="Capa_2" data-name="Capa 2" xmlns="http://www.w3.org/2000/svg" xmlns:xlink="http://www.w3.org/1999/xlink" viewBox="0 0 498.94 469.98">
  <defs>
    <style>
      .cls-1 {
        fill: #fff;
      }

      .cls-2 {
        fill: url(#_횄챨횪채_챠챵_찼책챌_챠횪챌창챔_11);
      }

      .cls-3 {
        fill: #efefef;
      }
    </style>
    <linearGradient id="_횄챨횪채_챠챵_찼책챌_챠횪챌창챔_11" data-name="횄챨횪채쨀쨘챠챵 찼책챌 챠횪챌창챔 11" x1="42.22" y1="194.08" x2="426.22" y2="194.08" gradientUnits="userSpaceOnUse">
      <stop offset="0" stop-color="#fccb4b"/>
      <stop offset="1" stop-color="#fbb849"/>
    </linearGradient>
  </defs>
  <g id="Capa_1-2" data-name="Capa 1">
    <g>
      <path class="cls-2" d="M425.64,255.16c-27.15,79.06-103.18,135.39-192.01,132.92-105.35-2.93-190.04-88.97-191.4-194.36C41.04,100.82,104.15,22.46,189.86.34c9.53-2.46,16.52,8.99,9.96,16.32-23.82,26.61-38.61,61.46-39.56,99.75-2.21,89.13,71.49,162.26,160.6,159.37,33.5-1.09,64.32-12.77,89.22-31.8,7.87-6.01,18.76,1.82,15.54,11.18Z"/>
      <path class="cls-3" d="M442.67,357.45c-10.27,0-19.9,2.75-28.19,7.56.26-2.55.4-5.15.4-7.77,0-41.15-33.36-74.51-74.51-74.51s-74.51,33.36-74.51,74.51c0,4.77.45,9.43,1.31,13.94-4.73-1.46-9.75-2.25-14.96-2.25-27.9,0-50.52,22.62-50.52,50.52s22.62,50.52,50.52,50.52h190.46c31.07,0,56.26-25.19,56.26-56.26s-25.19-56.26-56.26-56.26Z"/>
      <path class="cls-1" d="M240.98,316.1c-10.27,0-19.9,2.75-28.19,7.56.26-2.55.4-5.15.4-7.77,0-41.15-33.36-74.51-74.51-74.51s-74.51,33.36-74.51,74.51c0,4.77.45,9.43,1.31,13.94-4.73-1.46-9.75-2.25-14.96-2.25-27.9,0-50.52,22.62-50.52,50.52s22.62,50.52,50.52,50.52h190.46c31.07,0,56.26-25.19,56.26-56.26s-25.19-56.26-56.26-56.26Z"/>
    </g>
  </g>
</svg>