<?xml version="1.0" encoding="UTF-8"?>
<svg id="Capa_2" data-name="Capa 2" xmlns="http://www.w3.org/2000/svg" viewBox="0 0 538.44 310.08">
  <defs>
    <style>
      .cls-1 {
        fill: #fff;
      }

      .cls-2 {
        fill: #e2e2e2;
      }

      .cls-3 {
        fill: #cbcbcb;
      }
    </style>
  </defs>
  <g id="Capa_1-2" data-name="Capa 1">
    <g>
      <g>
        <path class="cls-1" d="M413.61,310.08c-4.35,0-7.88-3.53-7.88-7.88s3.53-7.88,7.88-7.88c29.89,0,54.21-24.32,54.21-54.21s-24.32-54.21-54.21-54.21c-4.35,0-7.88-3.53-7.88-7.88s3.53-7.88,7.88-7.88c38.58,0,69.97,31.39,69.97,69.97s-31.39,69.97-69.97,69.97Z"/>
        <path class="cls-1" d="M413.61,185.9H62.74c-4.35,0-7.88-3.53-7.88-7.88s3.53-7.88,7.88-7.88h350.87c4.35,0,7.88,3.53,7.88,7.88s-3.53,7.88-7.88,7.88Z"/>
      </g>
      <g>
        <path class="cls-2" d="M386.24,0c-3.53,0-6.39,2.86-6.39,6.39s2.86,6.39,6.39,6.39c24.22,0,43.93,19.71,43.93,43.93s-19.71,43.93-43.93,43.93c-3.53,0-6.39,2.86-6.39,6.39s2.86,6.39,6.39,6.39c31.27,0,56.71-25.44,56.71-56.71S417.51,0,386.24,0Z"/>
        <path class="cls-2" d="M386.24,100.64H101.88c-3.53,0-6.39,2.86-6.39,6.39s2.86,6.39,6.39,6.39h284.36c3.53,0,6.39-2.86,6.39-6.39s-2.86-6.39-6.39-6.39Z"/>
      </g>
      <path class="cls-3" d="M531.51,145.35H6.94c-3.83,0-6.94-3.11-6.94-6.94s3.11-6.94,6.94-6.94h524.57c3.83,0,6.94,3.11,6.94,6.94s-3.11,6.94-6.94,6.94Z"/>
    </g>
  </g>
</svg>