<?xml version="1.0" encoding="UTF-8"?>
<svg id="Capa_2" data-name="Capa 2" xmlns="http://www.w3.org/2000/svg" xmlns:xlink="http://www.w3.org/1999/xlink" viewBox="0 0 538.44 468.86">
  <defs>
    <style>
      .cls-1 {
        fill: url(#_횄챨횪채_챠챵_찼책챌_챠횪챌창챔_11-4);
      }

      .cls-2 {
        fill: url(#_횄챨횪채_챠챵_찼책챌_챠횪챌창챔_11-2);
      }

      .cls-3 {
        fill: #fff;
      }

      .cls-4 {
        fill: url(#_횄챨횪채_챠챵_찼책챌_챠횪챌창챔_11-6);
      }

      .cls-5 {
        fill: url(#_횄챨횪채_챠챵_찼책챌_챠횪챌창챔_11-3);
      }

      .cls-6 {
        fill: url(#_횄챨횪채_챠챵_찼책챌_챠횪챌창챔_11-8);
      }

      .cls-7 {
        fill: url(#_횄챨횪채_챠챵_찼책챌_챠횪챌창챔_11-9);
      }

      .cls-8 {
        fill: url(#_횄챨횪채_챠챵_찼책챌_챠횪챌창챔_11-7);
      }

      .cls-9 {
        fill: url(#_횄챨횪채_챠챵_찼책챌_챠횪챌창챔_11);
      }

      .cls-10 {
        fill: #efefef;
      }

      .cls-11 {
        fill: url(#_횄챨횪채_챠챵_찼책챌_챠횪챌창챔_11-5);
      }
    </style>
    <linearGradient id="_횄챨횪채_챠챵_찼책챌_챠횪챌창챔_11" data-name="횄챨횪채쨀쨘챠챵 찼책챌 챠횪챌창챔 11" x1="154.41" y1="225.61" x2="401.64" y2="225.61" gradientTransform="translate(240.96 -130.52) rotate(45)" gradientUnits="userSpaceOnUse">
      <stop offset="0" stop-color="#fccb4b"/>
      <stop offset="1" stop-color="#fbb849"/>
    </linearGradient>
    <linearGradient id="_횄챨횪채_챠챵_찼책챌_챠횪챌창챔_11-2" data-name="횄챨횪채쨀쨘챠챵 찼책챌 챠횪챌창챔 11" x1="270.48" y1="32.02" x2="285.57" y2="32.02" gradientTransform="matrix(1,0,0,1,0,0)" xlink:href="#_횄챨횪채_챠챵_찼책챌_챠횪챌창챔_11"/>
    <linearGradient id="_횄챨횪채_챠챵_찼책챌_챠횪챌창챔_11-3" data-name="횄챨횪채쨀쨘챠챵 찼책챌 챠횪챌창챔 11" x1="270.48" y1="417.22" x2="285.57" y2="417.22" gradientTransform="matrix(1,0,0,1,0,0)" xlink:href="#_횄챨횪채_챠챵_찼책챌_챠횪챌창챔_11"/>
    <linearGradient id="_횄챨횪채_챠챵_찼책챌_챠횪챌창챔_11-4" data-name="횄챨횪채쨀쨘챠챵 찼책챌 챠횪챌창챔 11" x1="-2986.1" y1="-4980.53" x2="-2971.02" y2="-4980.53" gradientTransform="translate(3392.75 5068.92)" xlink:href="#_횄챨횪채_챠챵_찼책챌_챠횪챌창챔_11"/>
    <linearGradient id="_횄챨횪채_챠챵_찼책챌_챠횪챌창챔_11-5" data-name="횄챨횪채쨀쨘챠챵 찼책챌 챠횪챌창챔 11" x1="-2986.1" y1="-4595.33" x2="-2971.02" y2="-4595.33" gradientTransform="translate(3120.37 4956.09)" xlink:href="#_횄챨횪채_챠챵_찼책챌_챠횪챌창챔_11"/>
    <linearGradient id="_횄챨횪채_챠챵_찼책챌_챠횪챌창챔_11-6" data-name="횄챨횪채쨀쨘챠챵 찼책챌 챠횪챌창챔 11" x1="-8833.47" y1="-6222.19" x2="-8818.39" y2="-6222.19" gradientTransform="translate(9296.56 6446.81)" xlink:href="#_횄챨횪채_챠챵_찼책챌_챠횪챌창챔_11"/>
    <linearGradient id="_횄챨횪채_챠챵_찼책챌_챠횪챌창챔_11-7" data-name="횄챨횪채쨀쨘챠챵 찼책챌 챠횪챌창챔 11" x1="-8833.47" y1="-5836.98" x2="-8818.39" y2="-5836.98" gradientTransform="translate(8911.36 6061.6)" xlink:href="#_횄챨횪채_챠챵_찼책챌_챠횪챌창챔_11"/>
    <linearGradient id="_횄챨횪채_챠챵_찼책챌_챠횪챌창챔_11-8" data-name="횄챨횪채쨀쨘챠챵 찼책챌 챠횪챌창챔 11" x1="-13846.07" y1="-2965.44" x2="-13830.98" y2="-2965.44" gradientTransform="translate(14252.65 3326.03)" xlink:href="#_횄챨횪채_챠챵_찼책챌_챠횪챌창챔_11"/>
    <linearGradient id="_횄챨횪채_챠챵_찼책챌_챠횪챌창챔_11-9" data-name="횄챨횪채쨀쨘챠챵 찼책챌 챠횪챌창챔 11" x1="-13846.07" y1="-2580.23" x2="-13830.98" y2="-2580.23" gradientTransform="translate(13980.23 2668.63)" xlink:href="#_횄챨횪채_챠챵_찼책챌_챠횪챌창챔_11"/>
  </defs>
  <g id="Capa_1-2" data-name="Capa 1">
    <g>
      <g>
        <circle class="cls-9" cx="278.03" cy="225.61" r="123.61" transform="translate(-78.1 262.67) rotate(-45)"/>
        <rect class="cls-2" x="270.48" width="15.09" height="64.04" rx="2.69" ry="2.69"/>
        <rect class="cls-5" x="270.48" y="385.21" width="15.09" height="64.04" rx="2.69" ry="2.69"/>
        <rect class="cls-1" x="406.68" y="56.41" width="15.09" height="64.04" rx="2.69" ry="2.69" transform="translate(183.85 -267) rotate(45)"/>
        <rect class="cls-11" x="134.29" y="328.79" width="15.09" height="64.04" rx="2.69" ry="2.69" transform="translate(296.68 5.39) rotate(45)"/>
        <rect class="cls-4" x="463.09" y="192.6" width="15.09" height="64.04" rx="2.69" ry="2.69" transform="translate(695.25 -246.01) rotate(90)"/>
        <rect class="cls-8" x="77.88" y="192.6" width="15.09" height="64.04" rx="2.69" ry="2.69" transform="translate(310.05 139.2) rotate(90)"/>
        <rect class="cls-6" x="406.68" y="328.79" width="15.09" height="64.04" rx="2.69" ry="2.69" transform="translate(962.25 323.06) rotate(135)"/>
        <rect class="cls-7" x="134.29" y="56.41" width="15.09" height="64.04" rx="2.69" ry="2.69" transform="translate(304.66 50.67) rotate(135)"/>
      </g>
      <path class="cls-10" d="M473.51,338.99c-11.85,0-22.96,3.18-32.53,8.73.31-2.95.46-5.94.46-8.97,0-47.49-38.5-85.99-85.99-85.99s-85.99,38.5-85.99,85.99c0,5.5.52,10.88,1.51,16.09-5.46-1.69-11.26-2.6-17.27-2.6-32.2,0-58.31,26.11-58.31,58.31s26.11,58.31,58.31,58.31h219.8c35.86,0,64.93-29.07,64.93-64.93s-29.07-64.93-64.93-64.93Z"/>
      <path class="cls-3" d="M278.11,283.1c-11.85,0-22.96,3.18-32.53,8.73.31-2.95.46-5.94.46-8.97,0-47.49-38.5-85.99-85.99-85.99s-85.99,38.5-85.99,85.99c0,5.5.52,10.88,1.51,16.09-5.46-1.69-11.26-2.6-17.27-2.6-32.2,0-58.31,26.11-58.31,58.31s26.11,58.31,58.31,58.31h219.8c35.86,0,64.93-29.07,64.93-64.93s-29.07-64.93-64.93-64.93Z"/>
    </g>
  </g>
</svg>