<?xml version="1.0" encoding="UTF-8"?>
<svg id="Capa_2" data-name="Capa 2" xmlns="http://www.w3.org/2000/svg" xmlns:xlink="http://www.w3.org/1999/xlink" viewBox="0 0 449.24 449.24">
  <defs>
    <style>
      .cls-1 {
        fill: url(#_횄챨횪채_챠챵_찼책챌_챠횪챌창챔_11-4);
      }

      .cls-2 {
        fill: url(#_횄챨횪채_챠챵_찼책챌_챠횪챌창챔_11-2);
      }

      .cls-3 {
        fill: url(#_횄챨횪채_챠챵_찼책챌_챠횪챌창챔_11-6);
      }

      .cls-4 {
        fill: url(#_횄챨횪채_챠챵_찼책챌_챠횪챌창챔_11-3);
      }

      .cls-5 {
        fill: url(#_횄챨횪채_챠챵_찼책챌_챠횪챌창챔_11-8);
      }

      .cls-6 {
        fill: url(#_횄챨횪채_챠챵_찼책챌_챠횪챌창챔_11-9);
      }

      .cls-7 {
        fill: url(#_횄챨횪채_챠챵_찼책챌_챠횪챌창챔_11-7);
      }

      .cls-8 {
        fill: url(#_횄챨횪채_챠챵_찼책챌_챠횪챌창챔_11);
      }

      .cls-9 {
        fill: url(#_횄챨횪채_챠챵_찼책챌_챠횪챌창챔_11-5);
      }
    </style>
    <linearGradient id="_횄챨횪채_챠챵_찼책챌_챠횪챌창챔_11" data-name="횄챨횪채쨀쨘챠챵 찼책챌 챠횪챌창챔 11" x1="101.01" y1="225.61" x2="348.23" y2="225.61" gradientTransform="translate(225.32 -92.75) rotate(45)" gradientUnits="userSpaceOnUse">
      <stop offset="0" stop-color="#fccb4b"/>
      <stop offset="1" stop-color="#fbb849"/>
    </linearGradient>
    <linearGradient id="_횄챨횪채_챠챵_찼책챌_챠횪챌창챔_11-2" data-name="횄챨횪채쨀쨘챠챵 찼책챌 챠횪챌창챔 11" x1="217.08" y1="32.02" x2="232.17" y2="32.02" gradientTransform="matrix(1,0,0,1,0,0)" xlink:href="#_횄챨횪채_챠챵_찼책챌_챠횪챌창챔_11"/>
    <linearGradient id="_횄챨횪채_챠챵_찼책챌_챠횪챌창챔_11-3" data-name="횄챨횪채쨀쨘챠챵 찼책챌 챠횪챌창챔 11" x1="217.08" y1="417.22" x2="232.17" y2="417.22" gradientTransform="matrix(1,0,0,1,0,0)" xlink:href="#_횄챨횪채_챠챵_찼책챌_챠횪챌창챔_11"/>
    <linearGradient id="_횄챨횪채_챠챵_찼책챌_챠횪챌창챔_11-4" data-name="횄챨횪채쨀쨘챠챵 찼책챌 챠횪챌창챔 11" x1="-3454.12" y1="-4801.51" x2="-3439.03" y2="-4801.51" gradientTransform="translate(3807.35 4889.89)" xlink:href="#_횄챨횪채_챠챵_찼책챌_챠횪챌창챔_11"/>
    <linearGradient id="_횄챨횪채_챠챵_찼책챌_챠횪챌창챔_11-5" data-name="횄챨횪채쨀쨘챠챵 찼책챌 챠횪챌창챔 11" x1="-3454.12" y1="-4416.3" x2="-3439.03" y2="-4416.3" gradientTransform="translate(3534.97 4777.07)" xlink:href="#_횄챨횪채_챠챵_찼책챌_챠횪챌창챔_11"/>
    <linearGradient id="_횄챨횪채_챠챵_찼책챌_챠횪챌창챔_11-6" data-name="횄챨횪채쨀쨘챠챵 찼책챌 챠횪챌창챔 11" x1="-9468.06" y1="-5623.39" x2="-9452.97" y2="-5623.39" gradientTransform="translate(9877.74 5848.02)" xlink:href="#_횄챨횪채_챠챵_찼책챌_챠횪챌창챔_11"/>
    <linearGradient id="_횄챨횪채_챠챵_찼책챌_챠횪챌창챔_11-7" data-name="횄챨횪채쨀쨘챠챵 찼책챌 챠횪챌창챔 11" x1="-9468.06" y1="-5238.19" x2="-9452.97" y2="-5238.19" gradientTransform="translate(9492.54 5462.81)" xlink:href="#_횄챨횪채_챠챵_찼책챌_챠횪챌창챔_11"/>
    <linearGradient id="_횄챨횪채_챠챵_찼책챌_챠횪챌창챔_11-8" data-name="횄챨횪채쨀쨘챠챵 찼책챌 챠횪챌창챔 11" x1="-14301.63" y1="-1952.04" x2="-14286.54" y2="-1952.04" gradientTransform="translate(14654.79 2312.63)" xlink:href="#_횄챨횪채_챠챵_찼책챌_챠횪챌창챔_11"/>
    <linearGradient id="_횄챨횪채_챠챵_찼책챌_챠횪챌창챔_11-9" data-name="횄챨횪채쨀쨘챠챵 찼책챌 챠횪챌창챔 11" x1="-14301.63" y1="-1566.83" x2="-14286.54" y2="-1566.83" gradientTransform="translate(14382.38 1655.24)" xlink:href="#_횄챨횪채_챠챵_찼책챌_챠횪챌창챔_11"/>
  </defs>
  <g id="Capa_1-2" data-name="Capa 1">
    <g>
      <circle class="cls-8" cx="224.62" cy="225.61" r="123.61" transform="translate(-93.74 224.91) rotate(-45)"/>
      <rect class="cls-2" x="217.08" width="15.09" height="64.04" rx="2.69" ry="2.69"/>
      <rect class="cls-4" x="217.08" y="385.21" width="15.09" height="64.04" rx="2.69" ry="2.69"/>
      <rect class="cls-1" x="353.27" y="56.41" width="15.09" height="64.04" rx="2.69" ry="2.69" transform="translate(168.21 -229.23) rotate(45)"/>
      <rect class="cls-9" x="80.89" y="328.79" width="15.09" height="64.04" rx="2.69" ry="2.69" transform="translate(281.03 43.15) rotate(45)"/>
      <rect class="cls-3" x="409.68" y="192.6" width="15.09" height="64.04" rx="2.69" ry="2.69" transform="translate(641.85 -192.6) rotate(90)"/>
      <rect class="cls-7" x="24.47" y="192.6" width="15.09" height="64.04" rx="2.69" ry="2.69" transform="translate(256.64 192.6) rotate(90)"/>
      <rect class="cls-5" x="353.27" y="328.79" width="15.09" height="64.04" rx="2.69" ry="2.69" transform="translate(871.08 360.82) rotate(135)"/>
      <rect class="cls-6" x="80.89" y="56.41" width="15.09" height="64.04" rx="2.69" ry="2.69" transform="translate(213.49 88.43) rotate(135)"/>
    </g>
  </g>
</svg>