<?xml version="1.0" encoding="UTF-8"?>
<svg id="Capa_2" data-name="Capa 2" xmlns="http://www.w3.org/2000/svg" xmlns:xlink="http://www.w3.org/1999/xlink" viewBox="0 0 538.44 412.03">
  <defs>
    <style>
      .cls-1 {
        fill: #585261;
      }

      .cls-2 {
        fill: #2cadff;
      }

      .cls-3 {
        fill: #6d6278;
      }

      .cls-4 {
        fill: #796c84;
      }

      .cls-5 {
        fill: url(#Gradient);
      }
    </style>
    <linearGradient id="Gradient" x1="341.63" y1="207.56" x2="361.55" y2="319.23" gradientUnits="userSpaceOnUse">
      <stop offset="0" stop-color="#fccb4b"/>
      <stop offset="1" stop-color="#fbb849"/>
    </linearGradient>
  </defs>
  <g id="Capa_1-2" data-name="Capa 1">
    <g>
      <path class="cls-1" d="M406.96,187.6c-9.45,0-18.3,2.53-25.92,6.95.24-2.35.37-4.73.37-7.14,0-37.84-30.68-68.52-68.52-68.52s-68.52,30.68-68.52,68.52c0,4.38.42,8.67,1.2,12.82-4.35-1.35-8.97-2.07-13.76-2.07-25.66,0-46.46,20.8-46.46,46.46s20.8,46.46,46.46,46.46h175.14c28.58,0,51.74-23.17,51.74-51.74s-23.17-51.74-51.74-51.74Z"/>
      <path class="cls-3" d="M221.61,159.96c-9.45,0-18.3,2.53-25.92,6.95.24-2.35.37-4.73.37-7.14,0-37.84-30.68-68.52-68.52-68.52s-68.52,30.68-68.52,68.52c0,4.38.42,8.67,1.2,12.82-4.35-1.35-8.97-2.07-13.76-2.07-25.66,0-46.46,20.8-46.46,46.46s20.8,46.46,46.46,46.46h175.14c28.58,0,51.74-23.17,51.74-51.74s-23.17-51.74-51.74-51.74Z"/>
      <path class="cls-4" d="M476.85,81.79c-11.24,0-21.78,3.01-30.86,8.28.29-2.8.44-5.63.44-8.5,0-45.05-36.52-81.57-81.57-81.57s-81.57,36.52-81.57,81.57c0,5.22.5,10.32,1.43,15.26-5.18-1.6-10.68-2.47-16.38-2.47-30.55,0-55.31,24.76-55.31,55.31s24.76,55.31,55.31,55.31h208.5c34.02,0,61.59-27.58,61.59-61.59s-27.58-61.59-61.59-61.59Z"/>
      <polygon class="cls-5" points="341.57 203.68 381.18 203.68 348.57 260.43 373.94 248.35 322.02 323.21 341.57 276.12 326.85 280.97 341.57 203.68"/>
      <path class="cls-2" d="M127.23,277.27s-36.25,50.51,0,56.46c36.25-5.94,0-56.46,0-56.46Z"/>
      <path class="cls-2" d="M488.91,300.24s-29.49,41.1,0,45.93c29.49-4.84,0-45.93,0-45.93Z"/>
      <path class="cls-2" d="M252.12,313.94s-25.44,35.45,0,39.62c25.44-4.17,0-39.62,0-39.62Z"/>
      <path class="cls-2" d="M432.67,217.71s-25.44,35.45,0,39.62c25.44-4.17,0-39.62,0-39.62Z"/>
      <path class="cls-2" d="M363.78,361.8s-32.25,44.94,0,50.23c32.25-5.29,0-50.23,0-50.23Z"/>
      <path class="cls-2" d="M72.54,365.68s-20.46,28.51,0,31.86c20.46-3.35,0-31.86,0-31.86Z"/>
    </g>
  </g>
</svg>